<svg xmlns="http://www.w3.org/2000/svg" viewBox="0 0 160 120" fill="none">
  <g style="transform-origin: 128px 84px;">
    <polygon points="110,84 98,27 119,21 146,68 152,75 152,84 128,84" fill="#619AEA"/>
    <line x1="123" y1="38" x2="127" y2="40" stroke="#FFFFFF" stroke-width="2.2" stroke-linecap="round"/>
    <line x1="127" y1="44" x2="131" y2="46" stroke="#FFFFFF" stroke-width="2.2" stroke-linecap="round"/>
    <line x1="131" y1="49.5" x2="135" y2="51.5" stroke="#FFFFFF" stroke-width="2.2" stroke-linecap="round"/>
    <polygon points="135.5,57.5 139.5,58 139.5,55 135.5,54" fill="#FFFFFF"/>
    <circle cx="108" cy="23" r="12" fill="#365AD2"/>
    <circle cx="108" cy="23" r="9" fill="#1E74D9"/>
    <circle cx="108" cy="23" r="6" fill="#EBF2FD"/>
    <path d="M 108 14 C 92 11 76 10 62 12 L 60 22 C 75 22 90 27 108 30 Z" fill="#619AEA"/>
    <circle cx="62" cy="13" r="8" fill="#365AD2"/>
    <circle cx="62" cy="13" r="4.5" fill="#EBF2FD"/>
    <polygon points="45,15 50,12 58,28 53,31" fill="#EBF2FD"/>
    <g style="transform-origin: 50px 22px;">
      <path d="M 46 17 C 36 15 26 19 22 23 L 18 34" stroke="#1D5CDC" stroke-width="4.5" stroke-linecap="round" stroke-linejoin="round" fill="none"/>
      <path d="M 50 31 C 49 37 45 42 42 44 L 27 46.5" stroke="#1D5CDC" stroke-width="4.5" stroke-linecap="round" stroke-linejoin="round" fill="none"/>
    </g>
  </g>
</svg>